<mxfile host="65bd71144e" scale="10" border="0">
    <diagram id="Jf5RHwIwj3P055EiEldz" name="第 1 页">
        <mxGraphModel dx="663" dy="375" grid="1" gridSize="10" guides="1" tooltips="1" connect="1" arrows="1" fold="1" page="1" pageScale="1" pageWidth="1169" pageHeight="1654" math="0" shadow="0">
            <root>
                <mxCell id="0"/>
                <mxCell id="1" parent="0"/>
                <mxCell id="337" value="" style="rounded=0;whiteSpace=wrap;html=1;fontFamily=宋体;fontSource=https%3A%2F%2Ffonts.googleapis.com%2Fcss%3Ffamily%3D%25E5%25AE%258B%25E4%25BD%2593;dashed=1;" vertex="1" parent="1">
                    <mxGeometry x="350" y="330" width="410" height="130" as="geometry"/>
                </mxCell>
                <mxCell id="347" style="edgeStyle=none;html=1;entryX=0.5;entryY=0;entryDx=0;entryDy=0;fontFamily=Times New Roman;fontSize=12;" edge="1" parent="1" source="320" target="354">
                    <mxGeometry relative="1" as="geometry"/>
                </mxCell>
                <mxCell id="320" value="&lt;font face=&quot;宋体&quot; data-font-src=&quot;https://fonts.googleapis.com/css?family=%E5%AE%8B%E4%BD%93&quot;&gt;类&lt;/font&gt;&lt;font data-font-src=&quot;https://fonts.googleapis.com/css?family=%E5%AE%8B%E4%BD%93&quot;&gt;&lt;font face=&quot;Times New Roman&quot;&gt;1&lt;/font&gt;&lt;br&gt;&lt;font face=&quot;宋体&quot;&gt;（红）&lt;/font&gt;&lt;/font&gt;" style="rounded=0;whiteSpace=wrap;html=1;" vertex="1" parent="1">
                    <mxGeometry x="360" y="280" width="40" height="40" as="geometry"/>
                </mxCell>
                <mxCell id="327" value="&lt;font face=&quot;宋体&quot; data-font-src=&quot;https://fonts.googleapis.com/css?family=%E5%AE%8B%E4%BD%93&quot;&gt;类&lt;/font&gt;&lt;font data-font-src=&quot;https://fonts.googleapis.com/css?family=%E5%AE%8B%E4%BD%93&quot; face=&quot;Times New Roman&quot;&gt;2&lt;br&gt;&lt;/font&gt;&lt;font data-font-src=&quot;https://fonts.googleapis.com/css?family=%E5%AE%8B%E4%BD%93&quot;&gt;&lt;font face=&quot;宋体&quot;&gt;（红）&lt;/font&gt;&lt;/font&gt;" style="rounded=0;whiteSpace=wrap;html=1;" vertex="1" parent="1">
                    <mxGeometry x="410" y="280" width="40" height="40" as="geometry"/>
                </mxCell>
                <mxCell id="328" value="&lt;font face=&quot;宋体&quot; data-font-src=&quot;https://fonts.googleapis.com/css?family=%E5%AE%8B%E4%BD%93&quot;&gt;类&lt;/font&gt;&lt;font data-font-src=&quot;https://fonts.googleapis.com/css?family=%E5%AE%8B%E4%BD%93&quot;&gt;&lt;font face=&quot;Times New Roman&quot;&gt;3&lt;/font&gt;&lt;br&gt;&lt;font face=&quot;宋体&quot;&gt;（红）&lt;/font&gt;&lt;/font&gt;" style="rounded=0;whiteSpace=wrap;html=1;" vertex="1" parent="1">
                    <mxGeometry x="460" y="280" width="40" height="40" as="geometry"/>
                </mxCell>
                <mxCell id="329" value="&lt;font face=&quot;宋体&quot; data-font-src=&quot;https://fonts.googleapis.com/css?family=%E5%AE%8B%E4%BD%93&quot;&gt;类&lt;/font&gt;&lt;font data-font-src=&quot;https://fonts.googleapis.com/css?family=%E5%AE%8B%E4%BD%93&quot;&gt;&lt;font face=&quot;Times New Roman&quot;&gt;4&lt;/font&gt;&lt;br&gt;&lt;font face=&quot;宋体&quot;&gt;（黄）&lt;/font&gt;&lt;/font&gt;" style="rounded=0;whiteSpace=wrap;html=1;" vertex="1" parent="1">
                    <mxGeometry x="510" y="280" width="40" height="40" as="geometry"/>
                </mxCell>
                <mxCell id="352" style="edgeStyle=none;html=1;entryX=0.5;entryY=0;entryDx=0;entryDy=0;fontFamily=Times New Roman;fontSize=12;" edge="1" parent="1" source="330" target="358">
                    <mxGeometry relative="1" as="geometry"/>
                </mxCell>
                <mxCell id="330" value="&lt;font face=&quot;宋体&quot; data-font-src=&quot;https://fonts.googleapis.com/css?family=%E5%AE%8B%E4%BD%93&quot;&gt;类&lt;/font&gt;&lt;font data-font-src=&quot;https://fonts.googleapis.com/css?family=%E5%AE%8B%E4%BD%93&quot;&gt;&lt;font face=&quot;Times New Roman&quot;&gt;5&lt;/font&gt;&lt;br&gt;&lt;font face=&quot;宋体&quot;&gt;（绿）&lt;/font&gt;&lt;/font&gt;" style="rounded=0;whiteSpace=wrap;html=1;" vertex="1" parent="1">
                    <mxGeometry x="560" y="280" width="40" height="40" as="geometry"/>
                </mxCell>
                <mxCell id="353" style="edgeStyle=none;html=1;entryX=0.5;entryY=0;entryDx=0;entryDy=0;fontFamily=Times New Roman;fontSize=12;" edge="1" parent="1" source="331" target="359">
                    <mxGeometry relative="1" as="geometry"/>
                </mxCell>
                <mxCell id="331" value="&lt;font face=&quot;宋体&quot; data-font-src=&quot;https://fonts.googleapis.com/css?family=%E5%AE%8B%E4%BD%93&quot;&gt;类&lt;/font&gt;&lt;font data-font-src=&quot;https://fonts.googleapis.com/css?family=%E5%AE%8B%E4%BD%93&quot; face=&quot;Times New Roman&quot;&gt;6&lt;br&gt;&lt;/font&gt;&lt;font data-font-src=&quot;https://fonts.googleapis.com/css?family=%E5%AE%8B%E4%BD%93&quot;&gt;&lt;font face=&quot;宋体&quot;&gt;（蓝）&lt;/font&gt;&lt;/font&gt;" style="rounded=0;whiteSpace=wrap;html=1;" vertex="1" parent="1">
                    <mxGeometry x="610" y="280" width="40" height="40" as="geometry"/>
                </mxCell>
                <mxCell id="362" style="edgeStyle=none;html=1;fontFamily=Times New Roman;fontSize=12;" edge="1" parent="1" source="332" target="360">
                    <mxGeometry relative="1" as="geometry"/>
                </mxCell>
                <mxCell id="332" value="&lt;font face=&quot;宋体&quot; data-font-src=&quot;https://fonts.googleapis.com/css?family=%E5%AE%8B%E4%BD%93&quot;&gt;类&lt;/font&gt;&lt;font data-font-src=&quot;https://fonts.googleapis.com/css?family=%E5%AE%8B%E4%BD%93&quot;&gt;&lt;font face=&quot;Times New Roman&quot;&gt;7&lt;/font&gt;&lt;br&gt;&lt;font face=&quot;宋体&quot;&gt;（黑）&lt;/font&gt;&lt;/font&gt;" style="rounded=0;whiteSpace=wrap;html=1;" vertex="1" parent="1">
                    <mxGeometry x="660" y="280" width="40" height="40" as="geometry"/>
                </mxCell>
                <mxCell id="363" style="edgeStyle=none;html=1;entryX=0.5;entryY=0;entryDx=0;entryDy=0;fontFamily=Times New Roman;fontSize=12;" edge="1" parent="1" source="333" target="361">
                    <mxGeometry relative="1" as="geometry"/>
                </mxCell>
                <mxCell id="333" value="&lt;font face=&quot;宋体&quot;&gt;无&lt;br&gt;类别&lt;/font&gt;" style="rounded=0;whiteSpace=wrap;html=1;" vertex="1" parent="1">
                    <mxGeometry x="710" y="280" width="40" height="40" as="geometry"/>
                </mxCell>
                <mxCell id="340" style="edgeStyle=none;html=1;entryX=0;entryY=0.5;entryDx=0;entryDy=0;fontFamily=Times New Roman;fontSize=12;strokeWidth=3;" edge="1" parent="1" source="339" target="334">
                    <mxGeometry relative="1" as="geometry">
                        <Array as="points">
                            <mxPoint x="280" y="355"/>
                        </Array>
                    </mxGeometry>
                </mxCell>
                <mxCell id="342" style="edgeStyle=none;html=1;entryX=0;entryY=0.5;entryDx=0;entryDy=0;fontFamily=Times New Roman;fontSize=12;strokeWidth=3;" edge="1" parent="1" source="339" target="335">
                    <mxGeometry relative="1" as="geometry"/>
                </mxCell>
                <mxCell id="343" style="edgeStyle=none;html=1;entryX=0;entryY=0.5;entryDx=0;entryDy=0;fontFamily=Times New Roman;fontSize=12;strokeWidth=3;" edge="1" parent="1" source="339" target="336">
                    <mxGeometry relative="1" as="geometry">
                        <Array as="points">
                            <mxPoint x="280" y="435"/>
                        </Array>
                    </mxGeometry>
                </mxCell>
                <mxCell id="339" value="&lt;font data-font-src=&quot;https://fonts.googleapis.com/css?family=%E5%AE%8B%E4%BD%93&quot;&gt;&lt;font face=&quot;宋体&quot;&gt;比较&lt;br&gt;&lt;/font&gt;&lt;font style=&quot;font-size: 12px&quot;&gt;R、G、B&lt;/font&gt;&lt;font face=&quot;宋体&quot;&gt;三者&lt;br&gt;的最大者&lt;/font&gt;&lt;/font&gt;" style="rounded=0;whiteSpace=wrap;html=1;fontFamily=Times New Roman;" vertex="1" parent="1">
                    <mxGeometry x="240" y="365" width="80" height="60" as="geometry"/>
                </mxCell>
                <mxCell id="344" value="&lt;font face=&quot;宋体&quot; data-font-src=&quot;https://fonts.googleapis.com/css?family=%E5%AE%8B%E4%BD%93&quot;&gt;为&lt;/font&gt;R" style="text;html=1;align=center;verticalAlign=middle;resizable=0;points=[];autosize=1;strokeColor=none;fillColor=none;fontSize=12;fontFamily=Times New Roman;" vertex="1" parent="1">
                    <mxGeometry x="310" y="360" width="40" height="20" as="geometry"/>
                </mxCell>
                <mxCell id="345" value="&lt;font face=&quot;宋体&quot; data-font-src=&quot;https://fonts.googleapis.com/css?family=%E5%AE%8B%E4%BD%93&quot;&gt;为&lt;/font&gt;&lt;font data-font-src=&quot;https://fonts.googleapis.com/css?family=%E5%AE%8B%E4%BD%93&quot;&gt;G&lt;/font&gt;" style="text;html=1;align=center;verticalAlign=middle;resizable=0;points=[];autosize=1;strokeColor=none;fillColor=none;fontSize=12;fontFamily=Times New Roman;" vertex="1" parent="1">
                    <mxGeometry x="310" y="400" width="40" height="20" as="geometry"/>
                </mxCell>
                <mxCell id="346" value="&lt;font face=&quot;宋体&quot; data-font-src=&quot;https://fonts.googleapis.com/css?family=%E5%AE%8B%E4%BD%93&quot;&gt;为&lt;/font&gt;&lt;font data-font-src=&quot;https://fonts.googleapis.com/css?family=%E5%AE%8B%E4%BD%93&quot;&gt;B&lt;/font&gt;" style="text;html=1;align=center;verticalAlign=middle;resizable=0;points=[];autosize=1;strokeColor=none;fillColor=none;fontSize=12;fontFamily=Times New Roman;" vertex="1" parent="1">
                    <mxGeometry x="310" y="440" width="40" height="20" as="geometry"/>
                </mxCell>
                <mxCell id="349" style="edgeStyle=none;html=1;fontFamily=Times New Roman;fontSize=12;" edge="1" parent="1" target="355">
                    <mxGeometry relative="1" as="geometry">
                        <mxPoint x="430.06255444091016" y="320" as="sourcePoint"/>
                        <mxPoint x="429.94" y="340.87" as="targetPoint"/>
                    </mxGeometry>
                </mxCell>
                <mxCell id="350" style="edgeStyle=none;html=1;fontFamily=Times New Roman;fontSize=12;" edge="1" parent="1" target="356">
                    <mxGeometry relative="1" as="geometry">
                        <mxPoint x="480.06255444091016" y="319.13" as="sourcePoint"/>
                        <mxPoint x="479.94" y="340" as="targetPoint"/>
                    </mxGeometry>
                </mxCell>
                <mxCell id="351" style="edgeStyle=none;html=1;entryX=0.5;entryY=0;entryDx=0;entryDy=0;fontFamily=Times New Roman;fontSize=12;" edge="1" parent="1" target="357">
                    <mxGeometry relative="1" as="geometry">
                        <mxPoint x="530.0625544409102" y="319.13" as="sourcePoint"/>
                        <mxPoint x="529.94" y="340" as="targetPoint"/>
                    </mxGeometry>
                </mxCell>
                <mxCell id="365" style="edgeStyle=none;html=1;entryX=0.5;entryY=0;entryDx=0;entryDy=0;fontFamily=Times New Roman;fontSize=12;strokeWidth=1;" edge="1" parent="1" source="354" target="364">
                    <mxGeometry relative="1" as="geometry">
                        <Array as="points">
                            <mxPoint x="380" y="520"/>
                            <mxPoint x="555" y="520"/>
                        </Array>
                    </mxGeometry>
                </mxCell>
                <mxCell id="354" value="&lt;font face=&quot;宋体&quot; data-font-src=&quot;https://fonts.googleapis.com/css?family=%E5%AE%8B%E4%BD%93&quot;&gt;类&lt;/font&gt;&lt;font data-font-src=&quot;https://fonts.googleapis.com/css?family=%E5%AE%8B%E4%BD%93&quot;&gt;&lt;font face=&quot;Times New Roman&quot;&gt;1&lt;/font&gt;&lt;br&gt;&lt;/font&gt;" style="rounded=0;whiteSpace=wrap;html=1;" vertex="1" parent="1">
                    <mxGeometry x="360" y="470" width="40" height="40" as="geometry"/>
                </mxCell>
                <mxCell id="366" style="edgeStyle=none;html=1;entryX=0.5;entryY=0;entryDx=0;entryDy=0;fontFamily=Times New Roman;fontSize=12;strokeWidth=1;" edge="1" parent="1" source="355" target="364">
                    <mxGeometry relative="1" as="geometry">
                        <Array as="points">
                            <mxPoint x="430" y="520"/>
                            <mxPoint x="555" y="520"/>
                        </Array>
                    </mxGeometry>
                </mxCell>
                <mxCell id="355" value="&lt;font face=&quot;宋体&quot; data-font-src=&quot;https://fonts.googleapis.com/css?family=%E5%AE%8B%E4%BD%93&quot;&gt;类&lt;/font&gt;&lt;font data-font-src=&quot;https://fonts.googleapis.com/css?family=%E5%AE%8B%E4%BD%93&quot; face=&quot;Times New Roman&quot;&gt;2&lt;/font&gt;" style="rounded=0;whiteSpace=wrap;html=1;" vertex="1" parent="1">
                    <mxGeometry x="410" y="470" width="40" height="40" as="geometry"/>
                </mxCell>
                <mxCell id="367" style="edgeStyle=none;html=1;entryX=0.5;entryY=0;entryDx=0;entryDy=0;fontFamily=Times New Roman;fontSize=12;strokeWidth=1;" edge="1" parent="1" source="356" target="364">
                    <mxGeometry relative="1" as="geometry">
                        <Array as="points">
                            <mxPoint x="480" y="520"/>
                            <mxPoint x="555" y="520"/>
                        </Array>
                    </mxGeometry>
                </mxCell>
                <mxCell id="356" value="&lt;font face=&quot;宋体&quot; data-font-src=&quot;https://fonts.googleapis.com/css?family=%E5%AE%8B%E4%BD%93&quot;&gt;类&lt;/font&gt;&lt;font data-font-src=&quot;https://fonts.googleapis.com/css?family=%E5%AE%8B%E4%BD%93&quot;&gt;&lt;font face=&quot;Times New Roman&quot;&gt;3&lt;/font&gt;&lt;br&gt;&lt;/font&gt;" style="rounded=0;whiteSpace=wrap;html=1;" vertex="1" parent="1">
                    <mxGeometry x="460" y="470" width="40" height="40" as="geometry"/>
                </mxCell>
                <mxCell id="368" style="edgeStyle=none;html=1;entryX=0.5;entryY=0;entryDx=0;entryDy=0;fontFamily=Times New Roman;fontSize=12;strokeWidth=1;" edge="1" parent="1" source="357" target="364">
                    <mxGeometry relative="1" as="geometry">
                        <Array as="points">
                            <mxPoint x="530" y="520"/>
                            <mxPoint x="555" y="520"/>
                        </Array>
                    </mxGeometry>
                </mxCell>
                <mxCell id="357" value="&lt;font face=&quot;宋体&quot; data-font-src=&quot;https://fonts.googleapis.com/css?family=%E5%AE%8B%E4%BD%93&quot;&gt;类&lt;/font&gt;&lt;font data-font-src=&quot;https://fonts.googleapis.com/css?family=%E5%AE%8B%E4%BD%93&quot;&gt;&lt;font face=&quot;Times New Roman&quot;&gt;4&lt;/font&gt;&lt;br&gt;&lt;/font&gt;" style="rounded=0;whiteSpace=wrap;html=1;" vertex="1" parent="1">
                    <mxGeometry x="510" y="470" width="40" height="40" as="geometry"/>
                </mxCell>
                <mxCell id="369" style="edgeStyle=none;html=1;entryX=0.5;entryY=0;entryDx=0;entryDy=0;fontFamily=Times New Roman;fontSize=12;strokeWidth=1;" edge="1" parent="1" source="358" target="364">
                    <mxGeometry relative="1" as="geometry">
                        <Array as="points">
                            <mxPoint x="580" y="520"/>
                            <mxPoint x="555" y="520"/>
                        </Array>
                    </mxGeometry>
                </mxCell>
                <mxCell id="358" value="&lt;font face=&quot;宋体&quot; data-font-src=&quot;https://fonts.googleapis.com/css?family=%E5%AE%8B%E4%BD%93&quot;&gt;类&lt;/font&gt;&lt;font data-font-src=&quot;https://fonts.googleapis.com/css?family=%E5%AE%8B%E4%BD%93&quot;&gt;&lt;font face=&quot;Times New Roman&quot;&gt;5&lt;/font&gt;&lt;br&gt;&lt;/font&gt;" style="rounded=0;whiteSpace=wrap;html=1;" vertex="1" parent="1">
                    <mxGeometry x="560" y="470" width="40" height="40" as="geometry"/>
                </mxCell>
                <mxCell id="370" style="edgeStyle=none;html=1;fontFamily=Times New Roman;fontSize=12;strokeWidth=1;entryX=0.5;entryY=0;entryDx=0;entryDy=0;" edge="1" parent="1" source="359" target="364">
                    <mxGeometry relative="1" as="geometry">
                        <mxPoint x="550" y="540" as="targetPoint"/>
                        <Array as="points">
                            <mxPoint x="630" y="520"/>
                            <mxPoint x="555" y="520"/>
                        </Array>
                    </mxGeometry>
                </mxCell>
                <mxCell id="359" value="&lt;font face=&quot;宋体&quot; data-font-src=&quot;https://fonts.googleapis.com/css?family=%E5%AE%8B%E4%BD%93&quot;&gt;类&lt;/font&gt;&lt;font data-font-src=&quot;https://fonts.googleapis.com/css?family=%E5%AE%8B%E4%BD%93&quot; face=&quot;Times New Roman&quot;&gt;6&lt;/font&gt;" style="rounded=0;whiteSpace=wrap;html=1;" vertex="1" parent="1">
                    <mxGeometry x="610" y="470" width="40" height="40" as="geometry"/>
                </mxCell>
                <mxCell id="371" style="edgeStyle=none;html=1;entryX=0.5;entryY=0;entryDx=0;entryDy=0;fontFamily=Times New Roman;fontSize=12;strokeWidth=1;" edge="1" parent="1" source="360" target="364">
                    <mxGeometry relative="1" as="geometry">
                        <Array as="points">
                            <mxPoint x="680" y="520"/>
                            <mxPoint x="555" y="520"/>
                        </Array>
                    </mxGeometry>
                </mxCell>
                <mxCell id="360" value="&lt;font face=&quot;宋体&quot; data-font-src=&quot;https://fonts.googleapis.com/css?family=%E5%AE%8B%E4%BD%93&quot;&gt;类&lt;/font&gt;&lt;font data-font-src=&quot;https://fonts.googleapis.com/css?family=%E5%AE%8B%E4%BD%93&quot;&gt;&lt;font face=&quot;Times New Roman&quot;&gt;7&lt;/font&gt;&lt;br&gt;&lt;/font&gt;" style="rounded=0;whiteSpace=wrap;html=1;" vertex="1" parent="1">
                    <mxGeometry x="660" y="470" width="40" height="40" as="geometry"/>
                </mxCell>
                <mxCell id="372" style="edgeStyle=none;html=1;entryX=0.5;entryY=0;entryDx=0;entryDy=0;fontFamily=Times New Roman;fontSize=12;strokeWidth=1;" edge="1" parent="1" source="361" target="364">
                    <mxGeometry relative="1" as="geometry">
                        <Array as="points">
                            <mxPoint x="730" y="520"/>
                            <mxPoint x="555" y="520"/>
                        </Array>
                    </mxGeometry>
                </mxCell>
                <mxCell id="361" value="&lt;font face=&quot;宋体&quot;&gt;无&lt;br&gt;类别&lt;/font&gt;" style="rounded=0;whiteSpace=wrap;html=1;" vertex="1" parent="1">
                    <mxGeometry x="710" y="470" width="40" height="40" as="geometry"/>
                </mxCell>
                <mxCell id="334" value="&lt;font face=&quot;宋体&quot; data-font-src=&quot;https://fonts.googleapis.com/css?family=%E5%AE%8B%E4%BD%93&quot;&gt;概率值增加&lt;/font&gt;" style="rounded=0;whiteSpace=wrap;html=1;fontFamily=Times New Roman;" vertex="1" parent="1">
                    <mxGeometry x="360" y="340" width="190" height="30" as="geometry"/>
                </mxCell>
                <mxCell id="335" value="&lt;font face=&quot;宋体&quot; data-font-src=&quot;https://fonts.googleapis.com/css?family=%E5%AE%8B%E4%BD%93&quot;&gt;概率值增加&lt;/font&gt;" style="rounded=0;whiteSpace=wrap;html=1;fontFamily=Times New Roman;" vertex="1" parent="1">
                    <mxGeometry x="510" y="380" width="90" height="30" as="geometry"/>
                </mxCell>
                <mxCell id="336" value="&lt;font face=&quot;宋体&quot; data-font-src=&quot;https://fonts.googleapis.com/css?family=%E5%AE%8B%E4%BD%93&quot;&gt;概率值增加&lt;/font&gt;" style="rounded=0;whiteSpace=wrap;html=1;fontFamily=Times New Roman;" vertex="1" parent="1">
                    <mxGeometry x="595" y="420" width="70" height="30" as="geometry"/>
                </mxCell>
                <mxCell id="364" value="&lt;font face=&quot;宋体&quot;&gt;取最大概率值的&lt;/font&gt;index" style="rounded=0;whiteSpace=wrap;html=1;fontFamily=Times New Roman;" vertex="1" parent="1">
                    <mxGeometry x="510" y="540" width="90" height="30" as="geometry"/>
                </mxCell>
            </root>
        </mxGraphModel>
    </diagram>
</mxfile>